{
    "asset": {
        "version": "2.0",
        "generator": "babylon.js glTF exporter for 3dsmax 2020 v20210308.2"
    },
    "scene": 0,
    "scenes": [
        {
            "nodes": [
                0
            ]
        }
    ],
    "nodes": [
        {
            "mesh": 0,
            "translation": [
                0.0,
                0.0,
                0.0
            ],
            "rotation": [
                0.0,
                0.0,
                0.0,
                0.0
            ],
            "scale": [
                1,
                1,
                1
            ],
            "name": "Rectangle001"
        }
    ],
    "meshes": [
        {
            "primitives": [
                {
                    "attributes": {
                        "POSITION": 1,
                        "NORMAL": 2
                    },
                    "indices": 0
                }
            ],
            "name": "Rectangle001"
        }
    ],
    "accessors": [
        {
            "bufferView": 0,
            "componentType": 5123,
            "count": 408,
            "type": "SCALAR",
            "name": "accessorIndices"
        },
        {
            "bufferView": 1,
            "componentType": 5126,
            "count": 408,
            "max": [
                45.0000038,
                2.5,
                25.0000019
            ],
            "min": [
                -45.0000038,
                0.0,
                -25.0000019
            ],
            "type": "VEC3",
            "name": "accessorPositions"
        },
        {
            "bufferView": 1,
            "byteOffset": 4896,
            "componentType": 5126,
            "count": 408,
            "type": "VEC3",
            "name": "accessorNormals"
        }
    ],
    "bufferViews": [
        {
            "buffer": 0,
            "byteLength": 816,
            "name": "bufferViewScalar"
        },
        {
            "buffer": 0,
            "byteOffset": 816,
            "byteLength": 9792,
            "byteStride": 12,
            "name": "bufferViewFloatVec3"
        }
    ],
    "buffers": [
        {
            "uri": "Labirint.bin",
            "byteLength": 10608
        }
    ]
}